# xmcd
#
# Track frame offsets:
#	150
#	17015
#	32615
#	51802
#	67712
#	82290
#	98560
#	122235
#	140750
#	156135
#	173972
#	187612
#	199730
#
# Disc length: 2846
#
# Revision: 5
# Processed by: cddbd v1.5.1PL0 Copyright (c) Steve Scherf et al.
# Submitted via: ExactAudioCopy v0.90b4
# Normalized: r4:DSETVAR1
#
DISCID=a60b1c0d
DTITLE=Various Artist - Dumb And Dumber
DYEAR=1994
DGENRE=Soundtrack
TTITLE0=Crash Test Dummies - The Ballad Of Peter Pumpkin Head
TTITLE1=Deadeye Dick - New Age Girl
TTITLE2=EchoBelly - Insomniac
TTITLE3=Pete Droge - If You Don't Love Me (I'll Kill Myself)
TTITLE4=The Primitives - Crash-The '95 Remix
TTITLE5=Willy One Blood - Whiney, Whiney (What Really Drives Me Crazy)
TTITLE6=The Sons - Too Much Of A Good Thing
TTITLE7=Deee-Lite - You Sexy Thing
TTITLE8=Gigolo Aunts - Where I Find My Heaven
TTITLE9=Butthole Surfers - Hurdy Gurdy Man
TTITLE10=The Lupins - Take
TTITLE11=Green Jelly - The Bear Song
TTITLE12=The Proclaimers - Get Ready
EXTD=
EXTT0=
EXTT1=
EXTT2=
EXTT3=
EXTT4=
EXTT5=
EXTT6=
EXTT7=
EXTT8=
EXTT9=
EXTT10=
EXTT11=
EXTT12=
PLAYORDER=
